<svg width="20" height="20" viewBox="0 0 20 20" fill="none" xmlns="http://www.w3.org/2000/svg">
<path d="M20 3.72093H0V2.55814C0 1.14419 1.14419 0 2.55814 0H17.4419C18.8558 0 20 1.14419 20 2.55814V3.72093ZM20 5.11628V17.4419C20 18.8558 18.8558 20 17.4419 20H2.55814C1.14419 20 0 18.8558 0 17.4419V5.11628H20ZM3.72093 8.13953C3.72093 8.52093 4.03721 8.83721 4.4186 8.83721H8.13953C8.52093 8.83721 8.83721 8.52093 8.83721 8.13953C8.83721 7.75814 8.52093 7.44186 8.13953 7.44186H4.4186C4.03721 7.44186 3.72093 7.75814 3.72093 8.13953ZM16.2791 15.5814C16.2791 15.2 15.9628 14.8837 15.5814 14.8837H4.4186C4.03721 14.8837 3.72093 15.2 3.72093 15.5814C3.72093 15.9628 4.03721 16.2791 4.4186 16.2791H15.5814C15.9628 16.2791 16.2791 15.9628 16.2791 15.5814ZM16.2791 11.8605C16.2791 11.4791 15.9628 11.1628 15.5814 11.1628H4.4186C4.03721 11.1628 3.72093 11.4791 3.72093 11.8605C3.72093 12.2419 4.03721 12.5581 4.4186 12.5581H15.5814C15.9628 12.5581 16.2791 12.2419 16.2791 11.8605Z" fill="#F37D53"/>
</svg>
