<svg width="20" height="20" viewBox="0 0 20 20" fill="none" xmlns="http://www.w3.org/2000/svg">
<path d="M14.4103 15.3997L11.5744 17.5559C11.3706 17.7159 11.1184 17.8 10.8463 17.8C10.6466 17.8 10.4586 17.7521 10.2864 17.6639C10.0877 17.5585 9.92241 17.3995 9.80932 17.205C9.69623 17.0105 9.63982 16.7883 9.64647 16.5634L9.7983 13.0157C9.81461 12.8242 9.8625 12.652 9.94249 12.5037L15.2622 2.32027C15.3661 2.11647 15.4945 1.93203 15.6464 1.76797V1.68798C15.6456 1.24055 15.4675 0.811674 15.1511 0.495291C14.8347 0.178908 14.4058 0.000808128 13.9584 0H5.45836V3.32807C5.45783 3.77488 5.28037 4.2033 4.96481 4.51962C4.64925 4.83595 4.22127 5.01443 3.77446 5.01605H0.446899V18.3156C0.448381 18.7624 0.62674 19.1904 0.942969 19.5061C1.2592 19.8217 1.68756 19.9993 2.13437 20H13.9589C14.406 20.0001 14.8349 19.8228 15.1514 19.507C15.4679 19.1912 15.6461 18.7627 15.6469 18.3156V13.2481L14.7226 15.0161C14.6446 15.163 14.5387 15.2933 14.4108 15.3997H14.4103ZM3.34648 7.50395H10.1865C10.4066 7.50395 10.5865 7.68024 10.5865 7.90391C10.5862 8.0099 10.544 8.11148 10.4691 8.18643C10.3941 8.26138 10.2925 8.3036 10.1865 8.30387H3.34597C3.23997 8.3036 3.1384 8.26138 3.06345 8.18643C2.9885 8.11148 2.94628 8.0099 2.94601 7.90391C2.94601 7.67973 3.12637 7.50395 3.34648 7.50395ZM8.04663 17.0001H3.34597C3.29339 17.0003 3.24129 16.99 3.19267 16.97C3.14405 16.95 3.09988 16.9205 3.0627 16.8834C3.02552 16.8462 2.99607 16.802 2.97604 16.7534C2.95601 16.7048 2.94581 16.6527 2.94601 16.6001C2.94601 16.38 3.12586 16.1996 3.34597 16.1996H8.04613C8.27031 16.1996 8.44608 16.38 8.44608 16.6001C8.44608 16.8243 8.27031 17.0001 8.04663 17.0001ZM2.94652 13.7036C2.94652 13.4799 3.12637 13.3041 3.34648 13.3041H7.15857C7.38275 13.3041 7.55853 13.4799 7.55853 13.7041C7.55873 13.7567 7.54853 13.8088 7.5285 13.8574C7.50847 13.906 7.47902 13.9502 7.44184 13.9873C7.40466 14.0245 7.36049 14.054 7.31187 14.074C7.26325 14.094 7.21115 14.1042 7.15857 14.104H3.34597C3.23997 14.1038 3.1384 14.0615 3.06345 13.9866C2.9885 13.9117 2.94628 13.8101 2.94601 13.7041L2.94652 13.7036ZM8.35845 11.1999H3.34648C3.2939 11.2001 3.2418 11.1899 3.19318 11.1698C3.14456 11.1498 3.10039 11.1204 3.06321 11.0832C3.02603 11.046 2.99658 11.0018 2.97655 10.9532C2.95652 10.9046 2.94632 10.8525 2.94652 10.7999C2.94652 10.5798 3.12637 10.4 3.34648 10.4H8.35845C8.57856 10.4 8.75841 10.5798 8.75841 10.7999C8.75841 11.0241 8.57856 11.1999 8.35845 11.1999Z" fill="#F37D53"/>
<path d="M3.77305 4.21461C4.26217 4.21461 4.66009 3.81668 4.66009 3.32705V0.238449L0.684448 4.21461H3.77305ZM18.5343 1.88822C18.0876 1.65582 17.5669 1.60994 17.0864 1.76063C16.6058 1.91133 16.2046 2.2463 15.9705 2.69221L14.9281 4.68742L18.2964 6.44673L19.3383 4.45203C19.5707 4.00525 19.6166 3.48459 19.4659 3.00405C19.3152 2.52352 18.9803 2.12228 18.5343 1.88822ZM10.6625 16.9557C10.7191 16.9858 10.7824 17.0011 10.8465 17.0001C10.9347 17.002 11.021 16.9738 11.091 16.9201L13.7007 14.9335L10.5876 13.3072L10.4465 16.5838C10.4444 16.6597 10.4635 16.7348 10.5016 16.8005C10.5398 16.8662 10.5955 16.9199 10.6625 16.9557ZM10.8251 12.5358L14.5521 5.40378L17.9189 7.16309L14.1919 14.2951L10.8251 12.5358Z" fill="#F37D53"/>
</svg>
