<svg width="20" height="20" viewBox="0 0 20 20" fill="none" xmlns="http://www.w3.org/2000/svg">
<path d="M17 4.25H14.75V3C14.7495 2.27082 14.4596 1.57165 13.944 1.05604C13.4283 0.540431 12.7292 0.25053 12 0.25H8C7.27082 0.25053 6.57165 0.540431 6.05604 1.05604C5.54043 1.57165 5.25053 2.27082 5.25 3V4.25H3C2.27082 4.25053 1.57165 4.54043 1.05604 5.05604C0.540431 5.57165 0.25053 6.27082 0.25 7V8.201C1.086 9.995 2.894 11.25 5 11.25H7.25V10C7.25 9.035 8.035 8.25 9 8.25H11C11.965 8.25 12.75 9.035 12.75 10V11.25H15C17.106 11.25 18.914 9.996 19.75 8.201V7C19.7495 6.27082 19.4596 5.57165 18.944 5.05604C18.4283 4.54043 17.7292 4.25053 17 4.25ZM6.75 3C6.75 2.311 7.311 1.75 8 1.75H12C12.689 1.75 13.25 2.311 13.25 3V4.25H6.75V3ZM9 13.25C8.9337 13.25 8.87011 13.2237 8.82322 13.1768C8.77634 13.1299 8.75 13.0663 8.75 13V10C8.75 9.9337 8.77634 9.87011 8.82322 9.82322C8.87011 9.77634 8.9337 9.75 9 9.75H11C11.0663 9.75 11.1299 9.77634 11.1768 9.82322C11.2237 9.87011 11.25 9.9337 11.25 10V13C11.25 13.0663 11.2237 13.1299 11.1768 13.1768C11.1299 13.2237 11.0663 13.25 11 13.25H9ZM15 12.75C16.7802 12.7506 18.4882 12.0459 19.75 10.79V17C19.7495 17.7292 19.4596 18.4283 18.944 18.944C18.4283 19.4596 17.7292 19.7495 17 19.75H3C2.27082 19.7495 1.57165 19.4596 1.05604 18.944C0.540431 18.4283 0.25053 17.7292 0.25 17V10.79C1.51153 12.0462 3.21967 12.7511 5 12.75H7.25V13C7.25 13.965 8.035 14.75 9 14.75H11C11.965 14.75 12.75 13.965 12.75 13V12.75H15Z" fill="#F37D53"/>
</svg>
