<svg width="24" height="25" viewBox="0 0 24 25" fill="none" xmlns="http://www.w3.org/2000/svg">
<path d="M12 12.6219C14.62 12.6219 16.75 10.4919 16.75 7.87195C16.75 5.25195 14.62 3.12195 12 3.12195C9.38 3.12195 7.25 5.25195 7.25 7.87195C7.25 10.4919 9.38 12.6219 12 12.6219ZM12 4.62195C13.79 4.62195 15.25 6.08195 15.25 7.87195C15.25 9.66195 13.79 11.1219 12 11.1219C10.21 11.1219 8.75 9.66195 8.75 7.87195C8.75 6.08195 10.21 4.62195 12 4.62195ZM15 14.1219H9C5.83 14.1219 3.25 16.7019 3.25 19.8719C3.25 21.3919 4.48 22.6219 6 22.6219H18C19.52 22.6219 20.75 21.3919 20.75 19.8719C20.75 16.7019 18.17 14.1219 15 14.1219ZM18 21.1219H6C5.31 21.1219 4.75 20.5619 4.75 19.8719C4.75264 18.7456 5.20126 17.6661 5.99771 16.8697C6.79417 16.0732 7.87364 15.6246 9 15.6219H15C16.1264 15.6246 17.2058 16.0732 18.0023 16.8697C18.7987 17.6661 19.2474 18.7456 19.25 19.8719C19.25 20.5619 18.69 21.1219 18 21.1219Z" fill="#6F767E"/>
</svg>
