<svg width="24" height="24" viewBox="0 0 24 24" fill="none" xmlns="http://www.w3.org/2000/svg">
<path fill-rule="evenodd" clip-rule="evenodd" d="M21 2C21 1.44772 20.5523 1 20 1H4C3.44772 1 3 1.44772 3 2V22C3 22.5523 3.44772 23 4 23H20C20.5523 23 21 22.5523 21 22V2ZM20 3C20 2.44772 19.5523 2 19 2H5C4.44772 2 4 2.44772 4 3V21C4 21.5523 4.44772 22 5 22H19C19.5523 22 20 21.5523 20 21V3ZM18 18.5C18 18.2239 17.7761 18 17.5 18H6.5C6.22386 18 6 18.2239 6 18.5C6 18.7761 6.22386 19 6.5 19H17.5C17.7761 19 18 18.7761 18 18.5ZM18 15.5C18 15.2239 17.7761 15 17.5 15H6.5C6.22386 15 6 15.2239 6 15.5C6 15.7761 6.22386 16 6.5 16H17.5C17.7761 16 18 15.7761 18 15.5ZM18 12.5C18 12.2239 17.7761 12 17.5 12H6.5C6.22386 12 6 12.2239 6 12.5C6 12.7761 6.22386 13 6.5 13H17.5C17.7761 13 18 12.7761 18 12.5ZM10.652 8.137L11.6 8.437C11.455 8.966 11.213 9.359 10.875 9.615C10.537 9.872 10.108 10 9.588 10C8.945 10 8.417 9.78 8.003 9.341C7.589 8.902 7.382 8.301 7.382 7.539C7.382 6.733 7.59 6.107 8.006 5.661C8.422 5.215 8.969 4.992 9.648 4.992C10.24 4.992 10.721 5.167 11.091 5.517C11.312 5.724 11.477 6.022 11.587 6.409L10.619 6.64C10.562 6.389 10.442 6.191 10.261 6.046C10.079 5.9 9.858 5.828 9.598 5.828C9.239 5.828 8.948 5.957 8.724 6.214C8.501 6.472 8.389 6.889 8.389 7.466C8.389 8.079 8.499 8.515 8.72 8.774C8.94 9.034 9.226 9.164 9.578 9.164C9.838 9.164 10.062 9.082 10.249 8.916C10.436 8.751 10.571 8.491 10.652 8.137ZM13.675 9.917L11.944 5.075H13.004L14.23 8.659L15.416 5.075H16.453L14.719 9.917H13.675Z" fill="#6F767E"/>
</svg>
