<svg width="20" height="22" viewBox="0 0 20 22" fill="none" xmlns="http://www.w3.org/2000/svg">
<path d="M3.34698 9.2998H11.3844C11.4369 9.2998 11.4889 9.28945 11.5374 9.26935C11.586 9.24925 11.6301 9.21979 11.6672 9.18265C11.7043 9.14551 11.7338 9.10142 11.7539 9.05289C11.774 9.00437 11.7843 8.95236 11.7843 8.89984C11.7843 8.84731 11.774 8.7953 11.7539 8.74678C11.7338 8.69825 11.7043 8.65416 11.6672 8.61702C11.6301 8.57988 11.586 8.55042 11.5374 8.53032C11.4889 8.51022 11.4369 8.49988 11.3844 8.49988H3.34698C3.29446 8.49988 3.24245 8.51022 3.19392 8.53032C3.1454 8.55042 3.10131 8.57988 3.06417 8.61702C3.02703 8.65416 2.99757 8.69825 2.97747 8.74678C2.95737 8.7953 2.94702 8.84731 2.94702 8.89984C2.94702 8.95236 2.95737 9.00437 2.97747 9.05289C2.99757 9.10142 3.02703 9.14551 3.06417 9.18265C3.10131 9.21979 3.1454 9.24925 3.19392 9.26935C3.24245 9.28945 3.29446 9.2998 3.34698 9.2998Z" fill="#6F767E" stroke="#6F767E" stroke-width="0.1"/>
<path d="M18.5332 2.88669C18.0864 2.65419 17.5656 2.60831 17.085 2.75911C16.6044 2.90992 16.2033 3.2451 15.9694 3.69119L15.6469 4.30922V2.68798C15.6465 2.24042 15.4685 1.81132 15.152 1.49485C14.8355 1.17837 14.4064 1.0004 13.9589 1H5.05889C5.00602 1.00024 4.95372 1.01098 4.90502 1.03159C4.86856 1.04847 4.83489 1.0708 4.80516 1.09782C4.7965 1.10547 4.78478 1.10903 4.77612 1.11719L0.564064 5.32924C0.555402 5.33841 0.551326 5.35064 0.543684 5.36032C0.517011 5.38946 0.494856 5.42244 0.477958 5.45814C0.457698 5.50691 0.447307 5.55921 0.447388 5.61201V19.312C0.447793 19.7595 0.625693 20.1885 0.942053 20.505C1.25841 20.8214 1.68739 20.9995 2.13486 21H13.9589C14.4064 20.9996 14.8355 20.8216 15.152 20.5052C15.4685 20.1887 15.6465 19.7596 15.6469 19.312V12.5153L19.3372 5.45101C19.57 5.00423 19.6161 4.48334 19.4654 4.00261C19.3147 3.52187 18.9794 3.12055 18.5332 2.88669ZM13.4891 14.9181L11.5387 13.8996L15.2663 6.76502L17.2161 7.78402L13.4891 14.9181ZM11.3716 14.7148L12.9154 15.5213L11.283 16.7645L11.3716 14.7148ZM4.65944 2.36547V4.32501C4.65944 4.81413 4.26152 5.21257 3.77189 5.21257H1.81234L4.65944 2.36547ZM14.8464 19.3115C14.8464 19.8011 14.4485 20.1996 13.9589 20.1996H2.13486C1.8995 20.1993 1.67385 20.1057 1.50738 19.9394C1.34091 19.773 1.2472 19.5474 1.2468 19.312V6.01197H3.77189C4.21927 6.01143 4.64817 5.83347 4.96452 5.51713C5.28086 5.20078 5.45882 4.77188 5.45936 4.3245V1.79992H13.9589C14.448 1.79992 14.8464 2.19835 14.8464 2.68747V5.83976L11.9423 11.3995H3.34696C3.24089 11.3995 3.13916 11.4416 3.06415 11.5166C2.98914 11.5916 2.94701 11.6933 2.94701 11.7994C2.94701 11.9055 2.98914 12.0072 3.06415 12.0822C3.13916 12.1572 3.24089 12.1994 3.34696 12.1994H11.5245L10.6446 13.8833C10.6188 13.9334 10.604 13.9885 10.6013 14.0448C10.6013 14.0468 10.5997 14.0489 10.5997 14.0514L10.589 14.2995H3.34696C3.24089 14.2995 3.13916 14.3417 3.06415 14.4167C2.98914 14.4917 2.94701 14.5934 2.94701 14.6995C2.94701 14.8056 2.98914 14.9073 3.06415 14.9823C3.13916 15.0573 3.24089 15.0995 3.34696 15.0995H10.5544L10.4637 17.1991H3.34696C3.24089 17.1991 3.13916 17.2413 3.06415 17.3163C2.98914 17.3913 2.94701 17.493 2.94701 17.5991C2.94701 17.7052 2.98914 17.8069 3.06415 17.8819C3.13916 17.9569 3.24089 17.999 3.34696 17.999H12.7463C12.8523 17.999 12.9541 17.9569 13.0291 17.8819C13.1041 17.8069 13.1462 17.7052 13.1462 17.5991C13.1462 17.493 13.1041 17.3913 13.0291 17.3163C12.9541 17.2413 12.8523 17.1991 12.7463 17.1991H12.0314L13.8998 15.7761C13.9049 15.772 13.9069 15.7659 13.912 15.7618C13.9529 15.7291 13.9869 15.6886 14.0119 15.6426L14.8459 14.0463L14.8464 19.3115ZM18.6285 5.0806L17.587 7.07429L15.6367 6.05528L16.6786 4.0616C16.8141 3.80344 17.0464 3.60951 17.3246 3.52231C17.6028 3.43511 17.9042 3.46177 18.1628 3.59642C18.4211 3.7317 18.6153 3.96395 18.7026 4.2422C18.7899 4.52046 18.7632 4.82198 18.6285 5.0806Z" fill="#6F767E" stroke="#6F767E" stroke-width="0.1"/>
</svg>
