<svg width="22" height="22" viewBox="0 0 22 22" fill="none" xmlns="http://www.w3.org/2000/svg">
<path d="M18.4418 1.69766H3.5581C2.53059 1.69766 1.69763 2.53062 1.69763 3.55813V18.4418C1.69763 19.4694 2.53059 20.3023 3.5581 20.3023H18.4418C19.4693 20.3023 20.3023 19.4694 20.3023 18.4418V3.55813C20.3023 2.53062 19.4693 1.69766 18.4418 1.69766Z" fill="white" stroke="white" stroke-width="0.3"/>
<path d="M3.5581 1.69766H18.4418C19.4651 1.69766 20.3023 2.53487 20.3023 3.55813V5.41859H1.69763V3.55813C1.69763 2.53487 2.53484 1.69766 3.5581 1.69766Z" fill="white" stroke="white" stroke-width="0.3"/>
<path d="M18.4419 1H3.55814C2.14419 1 1 2.14419 1 3.55814V18.4419C1 19.8558 2.14419 21 3.55814 21H18.4419C19.8558 21 21 19.8558 21 18.4419V3.55814C21 2.14419 19.8558 1 18.4419 1ZM2.39535 3.55814C2.39535 2.91628 2.91628 2.39535 3.55814 2.39535H18.4419C19.0837 2.39535 19.6047 2.91628 19.6047 3.55814V4.72093H2.39535V3.55814ZM19.6047 18.4419C19.6047 19.0837 19.0837 19.6047 18.4419 19.6047H3.55814C2.91628 19.6047 2.39535 19.0837 2.39535 18.4419V6.11628H19.6047V18.4419ZM4.72093 9.13953C4.72093 8.75814 5.03721 8.44186 5.4186 8.44186H9.13953C9.52093 8.44186 9.83721 8.75814 9.83721 9.13953C9.83721 9.52093 9.52093 9.83721 9.13953 9.83721H5.4186C5.03721 9.83721 4.72093 9.52093 4.72093 9.13953ZM4.72093 12.8605C4.72093 12.4791 5.03721 12.1628 5.4186 12.1628H16.5814C16.9628 12.1628 17.2791 12.4791 17.2791 12.8605C17.2791 13.2419 16.9628 13.5581 16.5814 13.5581H5.4186C5.03721 13.5581 4.72093 13.2419 4.72093 12.8605ZM4.72093 16.5814C4.72093 16.2 5.03721 15.8837 5.4186 15.8837H16.5814C16.9628 15.8837 17.2791 16.2 17.2791 16.5814C17.2791 16.9628 16.9628 17.2791 16.5814 17.2791H5.4186C5.03721 17.2791 4.72093 16.9628 4.72093 16.5814Z" fill="#6F767E" stroke="white" stroke-width="0.3"/>
</svg>
