<svg width="20" height="20" viewBox="0 0 20 20" fill="none" xmlns="http://www.w3.org/2000/svg">
<path d="M17 4.25H14.75V3C14.7495 2.27082 14.4596 1.57165 13.944 1.05604C13.4283 0.540431 12.7292 0.25053 12 0.25H8C7.27082 0.25053 6.57165 0.540431 6.05604 1.05604C5.54043 1.57165 5.25053 2.27082 5.25 3V4.25H3C2.27082 4.25053 1.57165 4.54043 1.05604 5.05604C0.540431 5.57165 0.25053 6.27082 0.25 7V17C0.25053 17.7292 0.540431 18.4283 1.05604 18.944C1.57165 19.4596 2.27082 19.7495 3 19.75H17C17.7292 19.7495 18.4283 19.4596 18.944 18.944C19.4596 18.4283 19.7495 17.7292 19.75 17V7C19.7495 6.27082 19.4596 5.57165 18.944 5.05604C18.4283 4.54043 17.7292 4.25053 17 4.25ZM6.75 3C6.75 2.311 7.311 1.75 8 1.75H12C12.689 1.75 13.25 2.311 13.25 3V4.25H6.75V3ZM18.25 17C18.25 17.689 17.689 18.25 17 18.25H3C2.311 18.25 1.75 17.689 1.75 17V11.446C2.6261 12.2812 3.78956 12.748 5 12.75H7.25V13C7.25 13.965 8.035 14.75 9 14.75H11C11.965 14.75 12.75 13.965 12.75 13V12.75H15C16.26 12.75 17.399 12.249 18.25 11.446V17ZM11.25 13C11.25 13.0663 11.2237 13.1299 11.1768 13.1768C11.1299 13.2237 11.0663 13.25 11 13.25H9C8.9337 13.25 8.87011 13.2237 8.82322 13.1768C8.77634 13.1299 8.75 13.0663 8.75 13V10C8.75 9.9337 8.77634 9.87011 8.82322 9.82322C8.87011 9.77634 8.9337 9.75 9 9.75H11C11.0663 9.75 11.1299 9.77634 11.1768 9.82322C11.2237 9.87011 11.25 9.9337 11.25 10V13ZM18.25 8C18.2489 8.86163 17.9062 9.68766 17.2969 10.2969C16.6877 10.9062 15.8616 11.2489 15 11.25H12.75V10C12.75 9.035 11.965 8.25 11 8.25H9C8.035 8.25 7.25 9.035 7.25 10V11.25H5C4.13837 11.2489 3.31234 10.9062 2.70307 10.2969C2.09381 9.68766 1.75106 8.86163 1.75 8V7C1.75 6.311 2.311 5.75 3 5.75H17C17.689 5.75 18.25 6.311 18.25 7V8Z" fill="#6F767E" stroke="white" stroke-width="0.5"/>
</svg>
