<svg width="512" height="512" viewBox="0 0 512 512" fill="none" xmlns="http://www.w3.org/2000/svg">
<path d="M146.312 349.936C164.128 338.56 176 318.664 176 296C176 260.712 147.288 232 112 232C76.712 232 48 260.712 48 296C48 318.664 59.872 338.56 77.688 349.936C37.176 364.16 8 402.688 8 448V504H216V448C216 402.688 186.824 364.16 146.312 349.936ZM64 296C64 269.528 85.528 248 112 248C138.472 248 160 269.528 160 296C160 322.472 138.472 344 112 344C85.528 344 64 322.472 64 296ZM119.776 444.912L112 452.688L104.224 444.912L109.88 360.112C110.592 360.088 111.288 360 112 360C112.712 360 113.408 360.088 114.12 360.104L119.776 444.912ZM200 488H176V424H160V488H64V424H48V488H24V448C24 405.744 53.944 370.376 93.72 361.936L87.776 451.088L112 475.312L136.224 451.088L130.28 361.936C170.056 370.376 200 405.744 200 448V488Z" fill="#F37D53"/>
<path d="M400 56C369.128 56 344 81.12 344 112C344 142.88 369.128 168 400 168C430.872 168 456 142.88 456 112C456 81.12 430.872 56 400 56ZM400 152C377.944 152 360 134.056 360 112C360 89.944 377.944 72 400 72C422.056 72 440 89.944 440 112C440 134.056 422.056 152 400 152Z" fill="#F37D53"/>
<path d="M504 81.752L484.672 76.928L494.92 59.856L452.16 17.072L435.072 27.32L430.248 8H369.752L364.928 27.328L347.84 17.072L305.072 59.848L315.32 76.92L296 81.752V142.248L315.32 147.072L305.08 164.152L347.848 206.928L364.936 196.68L369.752 216H430.248L435.072 196.672L452.16 206.92L458.904 200.168L467.128 235.8C460.456 240.08 456 247.512 456 256C456 258.488 456.488 260.848 457.2 263.104L429.296 284.032C425.48 281.496 420.912 280 416 280C409.544 280 403.704 282.592 399.384 286.752L375.704 274.912C375.824 273.944 376 272.992 376 272C376 258.768 365.232 248 352 248C338.768 248 328 258.768 328 272C328 275.696 328.904 279.152 330.408 282.28L298.288 314.4C295.152 312.904 291.696 312 288 312C274.768 312 264 322.768 264 336C264 349.232 274.768 360 288 360C301.232 360 312 349.232 312 336C312 332.304 311.096 328.848 309.592 325.72L341.712 293.6C344.848 295.096 348.304 296 352 296C358.456 296 364.296 293.408 368.616 289.248L392.296 301.088C392.176 302.056 392 303.008 392 304C392 317.232 402.768 328 416 328C429.232 328 440 317.232 440 304C440 301.512 439.512 299.152 438.808 296.896L466.72 275.96C470.52 278.504 475.088 280 480 280C493.232 280 504 269.232 504 256C504 243.704 494.672 233.656 482.736 232.28L472.248 186.832L494.92 164.152L484.68 147.072L504 142.248V81.752ZM288 344C283.584 344 280 340.408 280 336C280 331.592 283.584 328 288 328C292.416 328 296 331.592 296 336C296 340.408 292.416 344 288 344ZM352 280C347.584 280 344 276.408 344 272C344 267.592 347.584 264 352 264C356.416 264 360 267.592 360 272C360 276.408 356.416 280 352 280ZM416 312C411.584 312 408 308.408 408 304C408 299.592 411.584 296 416 296C420.416 296 424 299.592 424 304C424 308.408 420.416 312 416 312ZM480 248C484.416 248 488 251.592 488 256C488 260.408 484.416 264 480 264C475.584 264 472 260.408 472 256C472 251.592 475.584 248 480 248ZM488 129.752L472.408 133.648L468.136 135.264L464.416 144.4L474.784 161.68L449.672 186.784L432.4 176.416L422.64 180.44L417.752 200H382.248L377.36 180.432L367.6 176.408L350.328 186.776L325.216 161.672L335.584 144.392L331.616 134.648L312 129.752V94.248L327.592 90.352L331.872 88.728L335.584 79.592L325.216 62.328L350.328 37.224L367.6 47.592L377.36 43.568L382.248 24H417.752L422.64 43.568L432.4 47.592L449.672 37.224L474.784 62.328L464.416 79.592L468.384 89.352L488 94.248V129.752Z" fill="#F37D53"/>
<path d="M264 504H312V376H264V504ZM280 392H296V488H280V392Z" fill="black"/>
<path d="M328 504H376V312H328V504ZM344 328H360V488H344V328Z" fill="black"/>
<path d="M392 504H440V344H392V504ZM408 360H424V488H408V360Z" fill="black"/>
<path d="M456 504H504V296H456V504ZM472 312H488V488H472V312Z" fill="black"/>
<path d="M80 216H280V128C280 97.12 254.872 72 224 72H80C49.128 72 24 97.12 24 128V160C24 190.88 49.128 216 80 216ZM40 128C40 105.944 57.944 88 80 88H224C246.056 88 264 105.944 264 128V200H80C57.944 200 40 182.056 40 160V128Z" fill="#F37D53"/>
<path d="M56 104H72V120H56V104Z" fill="#F37D53"/>
<path d="M88 104H104V120H88V104Z" fill="#F37D53"/>
<path d="M120 104H248V120H120V104Z" fill="#F37D53"/>
<path d="M56 136H248V152H56V136Z" fill="#F37D53"/>
<path d="M56 168H248V184H56V168Z" fill="#F37D53"/>
<path d="M400 88C386.768 88 376 98.768 376 112C376 125.232 386.768 136 400 136C413.232 136 424 125.232 424 112C424 98.768 413.232 88 400 88ZM400 120C395.584 120 392 116.408 392 112C392 107.592 395.584 104 400 104C404.416 104 408 107.592 408 112C408 116.408 404.416 120 400 120Z" fill="black"/>
<rect x="277" y="389" width="28" height="107" fill="black"/>
<rect x="338" y="323" width="28" height="167" fill="black"/>
<rect x="402" y="356" width="28" height="135" fill="black"/>
<rect x="466" y="308" width="28" height="182" fill="black"/>
</svg>
