<svg width="24" height="25" viewBox="0 0 24 25" fill="none" xmlns="http://www.w3.org/2000/svg">
<path d="M15.171 2H8.82903C8.07963 2 7.47003 2.60959 7.47003 3.35899C7.47003 3.9488 7.84987 4.44691 8.37601 4.63454V20.1199C8.37606 22.1182 10.0013 23.7439 12 23.7439C13.9987 23.7439 15.624 22.1182 15.624 20.1199V4.63454C16.1501 4.44691 16.53 3.9488 16.53 3.35899C16.53 2.60959 15.9204 2 15.171 2ZM14.718 20.1199C14.718 21.6187 13.4988 22.8379 12 22.8379C10.5012 22.8379 9.28204 21.6187 9.28204 20.1199V11.0599H14.718V20.1199ZM14.718 10.154H9.28204V4.71799H14.718V10.154ZM15.171 3.81201H8.82903C8.57952 3.81201 8.37601 3.60896 8.37601 3.35899C8.37601 3.10902 8.57952 2.90598 8.82903 2.90598H15.171C15.4205 2.90598 15.624 3.10902 15.624 3.35899C15.624 3.60896 15.4205 3.81201 15.171 3.81201Z" fill="#6F767E" stroke="#6F767E" stroke-width="0.2"/>
<path d="M9 14H11.5C11.7761 14 12 14.2239 12 14.5C12 14.7761 11.7761 15 11.5 15H9V14Z" fill="#6F767E"/>
<path d="M9 17H11.5C11.7761 17 12 17.2239 12 17.5C12 17.7761 11.7761 18 11.5 18H9V17Z" fill="#6F767E"/>
</svg>
