<svg width="24" height="25" viewBox="0 0 24 25" fill="none" xmlns="http://www.w3.org/2000/svg">
<path fill-rule="evenodd" clip-rule="evenodd" d="M5 22.8719C3.34315 22.8719 2 21.5288 2 19.8719V12.208C2 11.3576 2.36096 10.5471 2.99311 9.97815L9.9931 3.67815C11.134 2.65133 12.866 2.65133 14.0069 3.67815L21.0069 9.97815C21.639 10.5471 22 11.3576 22 12.208V19.8719C22 21.5288 20.6569 22.8719 19 22.8719H5ZM20 12.208V19.8719C20 20.4242 19.5523 20.8719 19 20.8719H16V15.8719C16 14.2151 14.6569 12.8719 13 12.8719H11C9.34315 12.8719 8 14.2151 8 15.8719V20.8719H5C4.44772 20.8719 4 20.4242 4 19.8719V12.208C4 11.9245 4.12032 11.6544 4.33104 11.4647L11.331 5.16474C11.7113 4.82247 12.2887 4.82247 12.669 5.16474L19.669 11.4647C19.8797 11.6544 20 11.9245 20 12.208ZM10 20.8719V15.8719C10 15.3197 10.4477 14.8719 11 14.8719H13C13.5523 14.8719 14 15.3197 14 15.8719V20.8719H10Z" fill="#6F767E"/>
</svg>
