<svg xmlns="http://www.w3.org/2000/svg" width="140" height="140"><defs><clipPath id="a"><path fill="#ff5e5e" d="M1254 2087h140v140h-140z" data-name="Rectangle 323"/></clipPath></defs><g clip-path="url(#a)" transform="translate(-1254 -2087)"><g data-name="Group 132" transform="translate(2 6)"><g fill="#fff" stroke="#343434" stroke-linejoin="round" stroke-width="2.5" data-name="Rectangle 21"><path stroke="none" d="M1286 2085h71.5v132H1286z"/><path fill="none" d="M1287.25 2086.25h69v129.5h-69z"/></g><path fill="none" stroke="#343434" stroke-width="2.5" d="M1288.227 2101.5h68" data-name="Line 164"/><path fill="none" stroke="#343434" stroke-width="2.5" d="M1287.453 2193.5h68" data-name="Line 165"/><path fill="none" stroke="coral" stroke-linecap="round" stroke-width="4" d="M1306.5 2204.5h31" data-name="Line 166"/><circle cx="2.5" cy="2.5" r="2.5" fill="coral" data-name="Ellipse 63" transform="translate(1319 2092)"/><g stroke="#343434" stroke-width="2.5" data-name="Group 129"><g data-name="Group 128"><g fill="coral" data-name="Rectangle 22" transform="translate(1294 2116)"><rect width="27" height="27" stroke="none" rx="4"/><rect width="24.5" height="24.5" x="1.25" y="1.25" fill="none" rx="2.75"/></g><g fill="#fff" data-name="Ellipse 64" transform="translate(1301 2123)"><circle cx="6.5" cy="6.5" r="6.5" stroke="none"/><circle cx="6.5" cy="6.5" r="5.25" fill="none"/></g></g><path fill="none" d="M1331.5 2120.5h18" data-name="Line 167"/><path fill="none" d="M1327.5 2129.5h22" data-name="Line 168"/></g><g fill="none" stroke="#343434" stroke-width="2.5" data-name="Group 127"><path d="m1297 2177.531 11.344-12.618 11.6 12.618 24.727-28.551" data-name="Path 576"/><path d="M1335.638 2148h10.445v9.648" data-name="Path 577"/></g></g></g></svg>