<svg width="34" height="34" viewBox="0 0 34 34" fill="none" xmlns="http://www.w3.org/2000/svg">
<circle cx="17" cy="17" r="17" fill="#BDBDBD"/>
<path d="M17 8C14.383 8 12.2539 10.1291 12.2539 12.7461C12.2539 15.3631 14.383 17.4922 17 17.4922C19.617 17.4922 21.7461 15.3631 21.7461 12.7461C21.7461 10.1291 19.617 8 17 8ZM22.9051 20.5928C21.6057 19.2734 19.8831 18.5469 18.0547 18.5469H15.9453C14.1169 18.5469 12.3943 19.2734 11.0949 20.5928C9.80193 21.9057 9.08984 23.6387 9.08984 25.4727C9.08984 25.7639 9.32595 26 9.61719 26H24.3828C24.674 26 24.9102 25.7639 24.9102 25.4727C24.9102 23.6387 24.1981 21.9057 22.9051 20.5928Z" fill="white"/>
</svg>
